<?xml version="1.0" encoding="utf-8"?>
<!-- Generator: Adobe Illustrator 14.0.0, SVG Export Plug-In . SVG Version: 6.00 Build 43363)  -->
<!DOCTYPE svg PUBLIC "-//W3C//DTD SVG 1.1//EN" "http://www.w3.org/Graphics/SVG/1.1/DTD/svg11.dtd">
<svg version="1.1" id="Layer_1" xmlns="http://www.w3.org/2000/svg" xmlns:xlink="http://www.w3.org/1999/xlink" x="0px" y="0px"
	 width="100px" height="86.324px" viewBox="0 0 100 86.324" enable-background="new 0 0 100 86.324" xml:space="preserve">
<g>
	<path fill="#0E87EA" d="M9.537,19.006c0,1.372,1.112,2.486,2.486,2.486h12.119l15.11,39.683c0.369,0.972,1.301,1.604,2.324,1.604
		c0.074,0,0.152-0.004,0.232-0.01l40.545-3.8c0.942-0.089,1.754-0.706,2.092-1.593l10.032-26.346c0.487-1.283-0.156-2.72-1.439-3.21
		c-1.277-0.483-2.72,0.156-3.21,1.439l-0.256,0.674H44.518c-1.374,0-2.487,1.114-2.487,2.487s1.113,2.486,2.487,2.486h10.881v11.218
		H38.844L28.18,18.119c-0.365-0.963-1.291-1.602-2.324-1.602H12.022C10.648,16.518,9.537,17.633,9.537,19.006z M59.13,34.908h13.988
		l-2.097,11.218H59.13V34.908z M70.323,49.857l-0.996,5.336L59.13,56.15v-6.293H70.323z M87.68,34.908l-4.271,11.218h-8.592
		l2.032-10.875c0.021-0.117-0.006-0.228-0.006-0.343H87.68z M80.349,54.161l-7.16,0.671l0.931-4.975h7.868L80.349,54.161z
		 M40.266,49.857h15.133V56.5l-12.17,1.141L40.266,49.857z"/>
	<path fill="#0E87EA" d="M31.904,72.907c0,4.84,3.935,8.776,8.772,8.776c4.839,0,8.774-3.937,8.774-8.776
		c0-4.839-3.937-8.773-8.774-8.773S31.904,68.068,31.904,72.907z M36.878,72.906c0-2.094,1.706-3.801,3.801-3.801
		c2.096,0,3.801,1.707,3.801,3.801c0,2.096-1.705,3.803-3.801,3.803C38.584,76.709,36.878,75.002,36.878,72.906z"/>
	<path fill="#0E87EA" d="M72.886,72.907c0,4.84,3.937,8.776,8.774,8.776s8.775-3.937,8.775-8.776c0-4.839-3.938-8.773-8.775-8.773
		C76.823,64.134,72.886,68.068,72.886,72.907z M77.861,72.906c0-2.094,1.704-3.801,3.801-3.801c2.096,0,3.801,1.707,3.801,3.801
		c0,2.096-1.705,3.803-3.801,3.803C79.565,76.709,77.86,75.002,77.861,72.906z"/>
</g>
</svg>
